<svg version="1.2" xmlns="http://www.w3.org/2000/svg" viewBox="0 0 86 28" width="86" height="28"><defs><clipPath clipPathUnits="userSpaceOnUse" id="cp1"><path d="m-180-449h960v2998h-960z"/></clipPath></defs><style>.a{fill:#161615}</style><g clip-path="url(#cp1)"><path fill-rule="evenodd" class="a" d="m8 18.7q0-0.6 0.6-1.1 0.6-0.4 1.5-0.8 1-0.4 2.1-0.8 1-0.4 2-0.9 0.9-0.4 1.5-1.1 0.6-0.7 0.6-1.7-0.1-1.2-0.7-1.9-0.6-0.6-2.1-0.6-0.8 0-1.2 0.2-0.5 0.3-0.7 0.5-0.3 0.3-0.3 0.7h-1.7q0.2-0.4 0.5-0.7 0.3-0.3 1-0.5 0.6-0.3 1.6-0.4 0.3 0 0.5 0 0.3-0.1 0.5-0.1 1.2 0 2 0.3 0.8 0.3 1.3 0.8 0.4 0.6 0.6 1.4 0.2 0.9 0.2 2v8q0 0.7 0 1.5 0.1 0.7 0.3 1.3 0.2 0.6 0.7 1 0.4 0.5 1.1 0.5 1.5 0.2 2.7-0.2 1.1-0.4 2.4-1.1 1.3-0.7 2.8-1.5 1.5-0.8 3.5-1.5 1.8-0.6 3.4-0.6 1.7 0 3.3 0.6 1.5 0.7 3 1.8l-0.6 1.6q-1-1.5-2.2-2.5-1.2-0.9-2.8-0.9-0.6 0-1.2 0.1-1.6 0.4-3 0.9-1.3 0.5-2.4 1-1.2 0.6-2.3 1.1-1.1 0.5-2.1 0.8-1.1 0.4-2.2 0.6-1.1 0.1-2.4 0-1.8-0.2-2.6-1.3-0.8-1.1-0.8-3.2v-2.1q-0.2 0.1-0.6 0.4-0.5 0.3-1.1 0.5-0.6 0.3-1.3 0.5-0.7 0.2-1.5 0.2-0.8 0-1.5-0.2-0.7-0.1-1.3-0.5-0.5-0.3-0.8-0.9-0.3-0.5-0.3-1.2zm8.4-5.3q-0.4 0.7-1 1.3-0.7 0.5-1.5 0.8-0.7 0.4-1.6 0.7-0.8 0.3-1.4 0.6-0.7 0.4-1.1 0.8-0.4 0.3-0.3 0.9 0 0.7 0.3 1.2 0.2 0.4 0.6 0.7 0.4 0.3 0.9 0.4 0.4 0.2 1 0.2 0.5 0 1.1-0.2 0.6-0.1 1.2-0.3 0.5-0.2 1-0.4 0.4-0.3 0.8-0.5z"/><path class="a" d="m7.6 9.2q-2.2 0-3.9-0.9-1.7-0.8-3.2-2.6l0.9-1.4q0.4 1 0.9 1.8 0.5 0.8 1.2 1.4 0.6 0.6 1.4 0.9 0.9 0.3 1.9 0.2 2-0.1 3.6-0.5 1.6-0.4 3.1-0.9 1.4-0.5 2.7-0.8 1.3-0.4 2.7-0.4 0.7 0 1.5 0.2 0.7 0.1 1.5 0.4 1.7 0.7 2.5 2 0.7 1.2 0.7 3.2v4.1q0.6-2.8 1.7-4.3 1.1-1.5 2.3-1.9 0.5 0 0.8 0 0.8 0 1.3 0.2 0.4 0.3 0.7 0.6 0.3 0.3 0.4 0.7h-1.7q-0.1-0.3-0.2-0.5-0.1-0.2-0.3-0.4-0.3-0.1-0.7-0.1-0.2 0-0.6 0.1-0.5 0.2-1.1 0.7-0.5 0.5-1 1.4-0.5 0.9-0.9 2.1-0.4 1.2-0.7 2.9v1.9q0 0.5 0.2 1 0.3 0.4 0.8 0.7v0.2h-3.6v-0.2q0.5-0.3 0.8-0.7 0.2-0.5 0.2-1v-6.3q0-0.8 0-1.7-0.1-0.8-0.2-1.6-0.1-0.8-0.4-1.4-0.3-0.6-0.8-1-0.1-0.1-0.2-0.1-0.1-0.1-0.3-0.2-0.6-0.2-1.2-0.2-0.5-0.1-1.1-0.1-0.9 0-1.7 0.2-0.8 0.2-1.8 0.5-1.3 0.4-2.7 0.9-1.5 0.5-3.6 0.8-1 0.1-1.9 0.1z"/><path class="a" d="m41.6 9.8h3.5v0.2q-0.4 0.2-0.7 0.6-0.3 0.4-0.3 1v7.9q0.2 1 1 1.5v0.2h-3.5v-0.2q0.4-0.2 0.7-0.6 0.3-0.4 0.3-0.9v-8q0-0.5-0.3-0.8-0.3-0.4-0.7-0.7zm1.8-2.2q-0.4 0-0.7-0.3-0.3-0.2-0.3-0.6 0-0.3 0.3-0.6 0.3-0.3 0.7-0.3 0.4 0 0.7 0.3 0.4 0.3 0.4 0.6 0 0.4-0.4 0.6-0.3 0.3-0.7 0.3z"/><path fill-rule="evenodd" class="a" d="m42.9 23.1q0.5-0.1 1.1-0.1 1.1 0 2.1 0.3 1 0.4 1.9 0.7 0.9 0.4 1.8 0.8 0.8 0.3 1.5 0.3 0.6 0 1.1-0.3 0.5-0.2 0.9-0.6 0.4-0.4 0.6-0.9 0.2-0.6 0.3-1.1-0.6 0.1-1.2 0.1-0.5 0-0.9-0.1-0.5 0-0.9-0.1-1.1-0.3-1.6-0.8-0.6-0.5-0.8-0.9-0.3-0.5-0.2-1.1 0.1-0.8 0.7-1.3 0.7-0.5 1.5-0.5 0.7 0 1.4 0.4 0.6 0.4 1.1 1 0.5 0.6 0.8 1.3 0.3 0.8 0.4 1.4 0 0.1 0 0.2 0.5-0.1 1.1-0.4 0.5-0.3 0.9-0.7 0.5-0.5 0.8-1 0.2-0.5 0.2-1 0-0.6-0.6-1-0.7-0.4-1.7-0.8-1-0.4-2.1-0.8-1.2-0.4-2.2-0.8-1-0.5-1.6-1.2-0.7-0.6-0.7-1.5 0-0.8 0.4-1.4 0.4-0.6 1.1-0.9 0.7-0.4 1.5-0.6 0.9-0.2 1.7-0.2 1.5 0 2.5 0.3 0.9 0.3 1.4 0.6 0.6 0.4 0.9 0.8h-1.7q-0.1-0.4-0.5-0.7-0.3-0.3-1-0.5-0.7-0.2-1.9-0.2-0.5 0-1.1 0.1-0.6 0.2-1.1 0.5-0.5 0.3-0.9 0.7-0.3 0.4-0.3 0.9 0 0.7 0.7 1.2 0.7 0.5 1.7 1 1 0.4 2.2 0.8 1.2 0.4 2.2 0.8 1 0.5 1.7 1.1 0.7 0.6 0.7 1.4 0 0.7-0.3 1.4-0.4 0.6-1 1.1-0.6 0.5-1.4 0.8-0.8 0.4-1.5 0.5 0 1.1-0.3 2-0.4 0.9-1.1 1.3-0.7 0.5-1.5 0.5-0.7 0-1.3-0.3-0.7-0.3-1.4-0.6-0.6-0.3-1.2-0.6-0.7-0.4-1.3-0.6-0.4-0.1-0.8-0.1-0.8 0-1.6 0.3-0.8 0.3-1.2 0.9zm6.9-3.5q-0.1 0.4 0.1 0.8 0.1 0.4 0.5 0.7 0.3 0.4 1.1 0.7 0.8 0.2 1.6 0.2 0.3 0 0.6-0.1 0.2 0 0.5 0 0-0.6-0.1-1.1-0.2-0.6-0.5-1.1-0.2-0.5-0.6-0.9-0.5-0.4-1-0.5-0.3-0.1-0.6-0.1-0.4 0.1-0.7 0.2-0.3 0.2-0.5 0.5-0.3 0.3-0.4 0.7z"/><path class="a" d="m85.2 24.9l-0.6 1.6q-1-1.5-2.2-2.4-1.1-1-2.7-1-0.6 0-1.3 0.1-2.1 0.5-3.7 1.2-1.7 0.8-3.1 1.5-1.5 0.7-2.8 1.2-1.4 0.5-3.1 0.5-0.9 0-1.7-0.2-1.2-0.2-1.8-0.8-0.7-0.7-1-1.6-0.4-0.9-0.5-2-0.1-1.1-0.1-2.2v-9.5h-3.5v-0.2h6.3q-0.7-0.2-1.3-0.5-0.5-0.4-0.9-0.8c-0.3-0.3-0.6-0.7-0.6-1.5v-0.1q0 0 0 0v-0.3-5.5q0-0.3-0.3-0.8-0.3-0.5-0.7-0.7v-0.2h3.5v0.2q-0.4 0.2-0.7 0.6-0.3 0.4-0.3 0.8v3.7c0 0.6 0 2.2 0 2.2q0 0.9 0.3 1.4 0.2 0.6 0.8 1 0.5 0.5 1.6 0.5h0.2v0.2h-2.9v8.7q0 0.5 0 1.2 0.1 0.7 0.1 1.5 0 0.7 0.1 1.5 0.1 0.7 0.4 1.3 0.2 0.7 0.6 1.1 0.3 0.4 0.9 0.4 1.2 0.2 2.4-0.1 1.1-0.3 2.5-0.9 1.3-0.6 2.9-1.3 1.6-0.8 3.7-1.5 1.8-0.6 3.4-0.6 1.7 0 3.2 0.6 1.5 0.6 2.9 1.7z"/><path class="a" d="m37 13.2v7.3q0 1.1 0.3 1.4 0.3 0.3 0.7 0.3 0.3 0 0.5-0.1 0.1 0 0.2-0.1l0.1 0.2q-0.1 0.1-0.4 0.2-0.3 0-0.8 0-0.4 0-0.8 0-0.3-0.1-0.6-0.3-0.3-0.2-0.5-0.5-0.2-0.4-0.2-0.9v-9.3-0.1h-3.5v-0.2h6.3q-0.8-0.2-1.3-0.5-0.6-0.4-1-0.8c-0.2-0.3-0.5-0.7-0.6-1.5v-0.1q0 0 0 0v-0.3-5.5q0-0.3-0.2-0.8-0.3-0.5-0.8-0.7v-0.2h3.6v0.2q-0.5 0.2-0.7 0.6-0.3 0.4-0.4 0.8v3.7c0.1 0.6 0.1 2.2 0.1 2.2q0 0.9 0.2 1.4 0.3 0.6 0.8 1 0.6 0.5 1.7 0.5h0.1v0.2h-2.8v1.9z"/></g></svg>