<svg version="1.2" xmlns="http://www.w3.org/2000/svg" viewBox="0 0 122 24" width="122" height="24"><defs><clipPath clipPathUnits="userSpaceOnUse" id="cp1"><path d="m-333-453h960v2998h-960z"/></clipPath></defs><style>.a{fill:#161615}</style><g clip-path="url(#cp1)"><path fill-rule="evenodd" class="a" d="m1.6 1.8q0.5 0.7 1 1.4 0.6 0.6 1.2 1.1 0.5 0.4 1.2 0.7 0.7 0.2 1.5 0.2 0.6 0 1.3-0.1 2.1-0.6 3.8-1.4 1.7-0.8 3.2-1.5 1.5-0.7 3-1.2 1.4-0.5 3.2-0.5 1.1 0 2 0.2 0.8 0.2 1.4 0.7 0.6 0.4 0.8 1.3 0.3 0.8 0.3 2l0.1 0.1v11q0 1.1 1 1.6v0.2h-1.2q-0.5 0-0.9-0.3-0.4-0.3-0.5-0.8v-1.3q-0.1 0.4-0.5 0.8-0.4 0.4-0.9 0.8-0.5 0.4-1.2 0.7-0.7 0.3-1.6 0.4-1.3 0.1-2.6-0.1-1.2-0.1-2.1-0.7-1-0.6-1.6-1.7-0.5-1.1-0.5-2.8 0-1.3 0.5-2.1 0.6-0.8 1.5-1.3 0.9-0.5 2-0.8 1.1-0.3 2.3-0.5 1.1-0.3 2.1-0.6 1.1-0.3 1.7-0.9 0.5-0.4 0.7-0.9 0.3-0.5 0.2-1.1 0-1.2-0.2-2-0.2-0.8-0.9-1.2-0.3-0.2-0.7-0.3-1.2-0.1-2.4 0.2-1.2 0.3-2.5 0.8-1.2 0.6-2.4 1.2-1.3 0.7-2.5 1.2-1.3 0.6-2.6 1-1.4 0.4-2.7 0.4-1.5 0-3-0.5-1.5-0.6-3.1-1.9zm22.4 4.1q-0.5 0.9-1.4 1.4-1 0.5-2.1 0.8-1.1 0.4-2.2 0.7-1.1 0.2-2 0.8-0.9 0.5-1.4 1.3-0.6 0.9-0.4 2.3 0.1 1.2 0.4 2 0.4 0.9 1 1.4 0.6 0.6 1.5 0.8 0.8 0.3 1.9 0.3 0.9 0 1.8-0.4 0.9-0.3 1.5-0.9 0.7-0.6 1.1-1.4 0.3-0.8 0.3-1.8z"/><path fill-rule="evenodd" class="a" d="m28.1 12.4q-0.1-1.2 0.3-2.3 0.3-1.2 1.2-2.1 0.8-0.9 2.1-1.5 1.3-0.6 3.1-0.6 1.3 0 2.4 0.4 1.1 0.4 1.8 1 0.7 0.5 1.1 1.2 0.5 0.8 0.5 1.4 0 0.5-0.3 0.9-0.3 0.3-0.7 0.6-0.5 0.3-1.4 0.5-0.8 0.3-1.7 0.6-0.9 0.2-1.9 0.5-0.9 0.2-1.6 0.6-0.8 0.4-1.3 0.9-0.5 0.5-0.6 1.1 0.8 0.9 1.9 1.4 1.2 0.4 2.3 0.4 1.4 0 2.7-0.5 1.3-0.5 2.1-1.4l0.2 0.1q-0.5 0.7-1.3 1.2-0.7 0.4-1.8 0.8-1.1 0.3-2.5 0.3-1.6 0-2.7-0.5-1.2-0.4-2-1.2-0.9-0.8-1.3-1.7-0.5-1-0.6-2.1zm6.4-6.2q-1 0-1.9 0.5-1 0.4-1.6 1.2-0.7 0.8-1 1.8-0.4 1-0.4 2.1 0.1 1.2 0.4 2.1 0.4 0.9 0.9 1.6 0.1-0.7 0.5-1.2 0.4-0.5 1.1-0.9 0.7-0.3 1.5-0.6 0.8-0.3 1.7-0.5 0.8-0.3 1.5-0.6 0.7-0.2 1.2-0.6 0.4-0.3 0.5-0.8 0.2-0.5 0.1-1-0.4-1.4-1.5-2.2-1.2-0.9-3-0.9z"/><path fill-rule="evenodd" class="a" d="m36.6 19.5q0.5-0.1 1.1-0.1 1.1 0 2.1 0.4 1 0.3 1.9 0.7 0.9 0.3 1.7 0.7 0.8 0.3 1.6 0.3 0.5 0 1.1-0.3 0.5-0.2 0.8-0.6 0.4-0.4 0.7-0.9 0.2-0.5 0.3-1.1-0.6 0.1-1.2 0.1-0.5 0-1 0-0.4-0.1-0.8-0.2-1.1-0.3-1.7-0.8-0.5-0.4-0.8-0.9-0.2-0.5-0.2-1.1 0.1-0.8 0.8-1.3 0.6-0.5 1.4-0.5 0.8 0 1.5 0.4 0.6 0.4 1.1 1 0.5 0.6 0.8 1.4 0.3 0.7 0.4 1.4 0 0 0 0.1 0.5-0.1 1-0.4 0.6-0.3 1-0.7 0.4-0.4 0.7-0.9 0.3-0.6 0.3-1.1 0-0.5-0.6-1-0.7-0.4-1.7-0.8-1-0.3-2.1-0.7-1.2-0.4-2.2-0.9-1-0.5-1.7-1.1-0.6-0.7-0.6-1.5 0-0.9 0.4-1.4 0.4-0.6 1.1-1 0.7-0.4 1.5-0.6 0.8-0.1 1.7-0.1 1.5 0 2.4 0.2 1 0.3 1.5 0.6 0.6 0.4 0.8 0.9h-1.6q-0.1-0.5-0.5-0.8-0.4-0.2-1-0.5-0.7-0.2-1.9-0.2-0.6 0-1.2 0.2-0.6 0.1-1.1 0.4-0.5 0.3-0.8 0.7-0.3 0.4-0.3 1 0 0.6 0.6 1.1 0.7 0.6 1.8 1 1 0.4 2.2 0.8 1.2 0.4 2.2 0.9 1 0.4 1.7 1 0.7 0.6 0.7 1.4 0 0.8-0.4 1.4-0.3 0.6-0.9 1.1-0.7 0.5-1.4 0.9-0.8 0.3-1.6 0.4 0.1 1.1-0.3 2-0.3 0.9-1 1.3-0.7 0.5-1.5 0.5-0.7 0-1.4-0.3-0.6-0.2-1.3-0.6-0.6-0.3-1.3-0.6-0.6-0.4-1.2-0.6-0.4-0.1-0.9-0.1-0.7 0-1.5 0.3-0.8 0.4-1.2 0.9zm6.9-3.5q-0.1 0.4 0.1 0.8 0.1 0.4 0.4 0.8 0.4 0.3 1.2 0.6 0.8 0.2 1.6 0.2 0.2 0 0.5 0 0.3-0.1 0.6-0.1 0-0.5-0.2-1.1-0.1-0.5-0.4-1.1-0.3-0.5-0.7-0.8-0.4-0.4-0.9-0.6-0.3-0.1-0.6 0-0.4 0-0.7 0.2-0.3 0.1-0.6 0.4-0.2 0.3-0.3 0.7z"/><path class="a" d="m56 6.3h3.5v0.1q-0.4 0.2-0.7 0.6-0.2 0.4-0.2 1v7.9q0.1 1 0.9 1.5v0.2h-3.5l0.1-0.2q0.4-0.2 0.7-0.6 0.2-0.4 0.2-0.9v-7.9q0-0.5-0.3-0.9-0.2-0.4-0.7-0.7zm1.8-2.2q-0.4 0-0.7-0.2-0.3-0.3-0.3-0.7 0-0.3 0.3-0.6 0.3-0.3 0.7-0.3 0.5 0 0.8 0.3 0.3 0.3 0.3 0.6 0 0.4-0.3 0.7-0.3 0.2-0.8 0.2z"/><path fill-rule="evenodd" class="a" d="m49.1 20.9q1.4-1 2.8-1.7 1.5-0.6 3.2-0.6 0.8 0 1.7 0.1 0.9 0.2 1.8 0.5c1.5 0.5 2.7 1 3.8 1.5 4.2 1.8 6.8 2.4 7.5 2.5q0.2 0 0.4 0 0.3 0 0.5 0 0.7-0.1 1.5-0.2 0.8-0.2 1.5-0.4 0.7-0.3 1.1-0.8 0.4-0.4 0.4-1 0-0.8-0.5-1.2-0.5-0.4-1.3-0.7-0.8-0.3-1.9-0.4-1-0.1-2.1-0.2-1.1 0-2.1-0.1-1-0.2-1.7-0.4-0.8-0.2-1.2-0.7c-0.2-0.2-0.4-0.6-0.3-1 0.1-0.2 0.2-0.5 0.4-0.8q0.2-0.3 0.7-1-0.9-0.7-1.5-1.5-0.6-0.9-0.6-2 0-1.1 0.6-2 0.5-0.8 1.4-1.5 0.9-0.6 2.1-1 1.1-0.3 2.4-0.3 0.5 0 1 0.1 0.6 0 1.1 0.2 0 0 0-0.1 0.3-0.3 0.7-0.6 0.4-0.3 0.9-0.5 0.5-0.2 1.1-0.3 0.6-0.1 1.4-0.1v1.6q-0.5-0.4-1-0.5-0.4-0.2-0.8-0.2-0.7-0.1-1.2 0.1-0.5 0.2-0.7 0.6l-0.1 0.1q1 0.3 1.7 0.8 0.8 0.4 1.3 1 0.6 0.7 0.8 1.3 0.3 0.7 0.3 1.3 0 1.1-0.6 2-0.5 0.8-1.4 1.5-0.9 0.6-2.1 1-1.2 0.3-2.4 0.3-2.2 0-4.1-1.2l-0.2 0.3q-0.2 0.3-0.4 0.5-0.1 0.2-0.2 0.5-0.1 0.3-0.1 0.5 0 0.6 0.5 0.9 0.5 0.3 1.4 0.5 0.9 0.1 2 0.2 1.1 0 2.3 0.1 1.1 0.1 2.3 0.2 1.1 0.1 2 0.4 0.8 0.3 1.4 0.7 0.5 0.5 0.5 1.3 0 0.8-0.7 1.4-0.7 0.6-1.7 1-1.1 0.4-2.4 0.5-1.3 0.2-2.5 0.2c-4-0.3-8.7-2.5-9.9-3.1q-1.8-0.8-4-1.3-0.7-0.1-1.2-0.1-1.6 0-2.8 0.9-1.2 1-2.2 2.5zm18.4-14.1q-0.9 0.4-1.5 1-0.7 0.7-1 1.5-0.3 0.8-0.3 1.7 0 0.9 0.4 1.7 0.4 0.6 0.7 0.9 0.8-1 2.2-2.7 1.4-1.7 3.6-4.4-0.7-0.3-1.4-0.3-1.3 0-2.7 0.6zm-1.4 7.1q0.7 0.6 1.6 0.9 1 0.3 2 0.3 1.4 0 2.6-0.5 0.9-0.3 1.5-1 0.5-0.6 0.8-1.4 0.3-0.8 0.2-1.7 0-0.8-0.5-1.7-0.4-0.8-1-1.4-0.6-0.5-1.4-0.8z"/><path class="a" d="m79.9 6.1q0.6-0.1 1.3-0.3 0.6-0.3 1.2-0.6v7.6q0.3-1.7 0.8-3 0.5-1.3 1.2-2.1c0.4-0.6 0.8-1 1.3-1.3 0.9-0.6 1.7-0.6 2.2-0.5q0.7 0.2 1.4 0.6 0.6 0.3 1.1 1c0.4 0.4 0.7 1.1 0.7 2.1 0 0.6 0 4.6 0 6.5q-0.1 1 0.8 1.3v0.2h-3.5v-0.2q0.4-0.2 0.8-0.6 0.3-0.3 0.4-0.7c0-0.6 0-4.9 0-5.4 0-0.6-0.1-1.9-0.2-2.3-0.2-0.4-0.2-0.8-0.5-1.1q-0.4-0.5-0.9-0.8c-0.6-0.3-1.6-0.1-2.1 0.2q-0.7 0.5-1.4 1.5-0.7 1-1.2 2.6-0.6 1.6-0.9 4v1.1q0.1 0.5 0.3 0.9 0.3 0.4 0.7 0.6v0.2h-3.5v-0.2q0.4-0.2 0.7-0.6 0.3-0.4 0.3-0.9v-8.1q-0.1-1-1-1.5z"/><path fill-rule="evenodd" class="a" d="m95.4 12.4q-0.1-1.2 0.3-2.3 0.3-1.2 1.2-2.1 0.8-0.9 2.1-1.5 1.4-0.6 3.2-0.6 1.3 0 2.3 0.4 1.1 0.4 1.8 1 0.8 0.5 1.2 1.2 0.4 0.8 0.4 1.4 0 0.5-0.3 0.9-0.3 0.3-0.7 0.6-0.5 0.3-1.3 0.5-0.9 0.3-1.8 0.6-0.9 0.2-1.8 0.5-1 0.2-1.7 0.6-0.8 0.4-1.3 0.9-0.5 0.5-0.6 1.1 0.8 0.9 2 1.4 1.1 0.4 2.3 0.4 1.4 0 2.6-0.5 1.3-0.5 2.1-1.4l0.2 0.1q-0.5 0.7-1.3 1.2-0.7 0.4-1.8 0.8-1 0.3-2.5 0.3-1.5 0-2.7-0.5-1.2-0.4-2-1.2-0.9-0.8-1.3-1.7-0.5-1-0.6-2.1zm6.5-6.2q-1.1 0-2 0.5-0.9 0.4-1.6 1.2-0.7 0.8-1 1.8-0.4 1-0.3 2.1 0 1.2 0.4 2.1 0.3 0.9 0.8 1.6 0.1-0.7 0.5-1.2 0.5-0.5 1.2-0.9 0.6-0.3 1.5-0.6 0.8-0.3 1.6-0.5 0.8-0.3 1.5-0.6 0.7-0.2 1.2-0.6 0.4-0.3 0.6-0.8 0.1-0.5 0-1-0.4-1.4-1.5-2.2-1.1-0.9-2.9-0.9z"/><path class="a" d="m96.5 5.6q-2.2 0-4-0.8-1.7-0.9-3.2-2.6l0.9-1.5q0.4 1 0.9 1.8 0.5 0.8 1.2 1.4 0.6 0.6 1.5 0.9 0.8 0.3 1.9 0.2 1.9-0.1 3.5-0.5 1.7-0.4 3.1-0.9 1.4-0.4 2.7-0.8 1.4-0.4 2.7-0.4 0.7 0 1.5 0.2 0.7 0.1 1.6 0.4 1.7 0.7 2.4 2 0.8 1.2 0.7 3.2v4.2q0.6-2.9 1.7-4.4 1.1-1.5 2.3-1.8 0.5-0.1 0.9-0.1 0.7 0 1.2 0.2 0.5 0.3 0.7 0.6 0.3 0.3 0.4 0.8h-1.7q0-0.4-0.2-0.6-0.1-0.2-0.3-0.3-0.2-0.2-0.6-0.2-0.3 0-0.6 0.1-0.6 0.2-1.1 0.7-0.6 0.5-1.1 1.4-0.5 0.9-0.9 2.1-0.4 1.2-0.7 2.9v1.9q0 0.6 0.3 1 0.2 0.5 0.7 0.7v0.2h-3.5v-0.2q0.4-0.2 0.7-0.7 0.3-0.4 0.3-1v-6.2q0-0.9-0.1-1.7 0-0.9-0.2-1.7-0.1-0.8-0.4-1.4-0.3-0.6-0.7-1-0.1 0-0.3-0.1-0.1-0.1-0.3-0.1-0.6-0.2-1.1-0.3-0.6-0.1-1.1-0.1-0.9 0-1.8 0.2-0.8 0.2-1.7 0.5-1.3 0.4-2.8 0.9-1.5 0.5-3.5 0.8-1 0.1-1.9 0.1z"/></g></svg>