<svg version="1.2" xmlns="http://www.w3.org/2000/svg" viewBox="0 0 171 50" width="171" height="50"><defs><clipPath clipPathUnits="userSpaceOnUse" id="cp1"><path d="m-144-46h960v2998h-960z"/></clipPath></defs><style>.a{fill:#e9e9e9}</style><g clip-path="url(#cp1)"><path fill-rule="evenodd" class="a" d="m1 44.6q0.4-0.1 0.9-0.1 0.4 0 0.9 0 1.8 0 3.5 0.3 1.7 0.4 3.2 0.9 1.5 0.5 2.8 0.9 1.4 0.4 2.7 0.4 0.7 0 1.5-0.3 0.8-0.2 1.5-0.7 0.7-0.4 1.2-1.1 0.5-0.6 0.6-1.4-0.5 0-1 0-0.5 0.1-1 0.1-1.6 0-3-0.3-1.8-0.3-2.7-0.9-1-0.6-1.3-1.1-0.5-0.6-0.4-1.3 0.2-0.6 0.5-1 0.4-0.4 0.9-0.7 0.6-0.2 1.2-0.4 0.6-0.1 1.1-0.1 1.1 0 2.1 0.4 1 0.4 1.9 1.1 0.8 0.6 1.4 1.6 0.6 0.9 0.8 1.9 0 0 0 0.1 0 0 0.1 0.1 1.1-0.2 2.1-0.7 0.9-0.4 1.7-1 0.7-0.6 1.1-1.4 0.4-0.8 0.4-1.8 0-1-1.1-1.8-1.1-0.8-2.8-1.5-1.6-0.7-3.6-1.3-1.9-0.7-3.6-1.4-1.8-0.8-3-1.8-1.2-1-1.4-2.4-0.2-1.4 0.4-2.5 0.6-1 1.8-1.7 1.1-0.7 2.7-1 1.5-0.3 3.2-0.3 0.7 0 1.4 0 0.8 0.1 1.5 0.2 1.8 0.3 2.7 0.8 0.9 0.5 1.3 1.1 0.4 0.6 0.3 1.3-0.2-0.1-0.4-0.1-0.1 0-0.4 0-0.2-0.1-0.4-0.1-0.3 0-0.6-0.1-0.1 0-0.2 0 0.1-0.5-0.2-1-0.2-0.4-0.8-0.9-0.6-0.4-1.9-0.6-1.3-0.3-2.5-0.3-1.4 0-2.5 0.3-1.2 0.3-2.1 0.8-0.9 0.6-1.4 1.4-0.6 0.7-0.6 1.7 0 1.3 1.2 2.2 1.2 0.9 3 1.6 1.7 0.8 3.8 1.5 2 0.6 3.8 1.4 1.8 0.8 2.9 1.8 1.2 1.1 1.2 2.5 0 1.2-0.6 2.2-0.5 0.9-1.5 1.6-1 0.7-2.2 1.1-1.3 0.4-2.7 0.6 0.1 1.3-0.5 2.4-0.7 1.1-1.8 1.6-0.6 0.3-1.2 0.4-0.7 0.1-1.3 0.1-1.1 0-2.2-0.3-1.1-0.3-2.2-0.7-1.1-0.4-2.1-0.8-1.1-0.4-2.1-0.7-0.3 0-0.6-0.1-0.4 0-0.8 0-1.3 0-2.6 0.4-1.3 0.4-2 1zm11.5-4.2q-0.1 0.6 0.1 1 0.2 0.5 0.8 0.9 0.6 0.5 1.9 0.8 0.6 0.1 1.3 0.1 0.6 0.1 1.3 0.1 0.5 0 1 0 0.5-0.1 0.9-0.2 0-0.7-0.3-1.4-0.3-0.7-0.8-1.3-0.5-0.6-1.1-1-0.7-0.4-1.4-0.5-0.5-0.1-1.1-0.1-0.5 0-1.1 0.2-0.5 0.2-0.9 0.6-0.4 0.3-0.6 0.8z"/><path class="a" d="m29.7 42.2q0.3-0.5 0.3-1.1v-16.3q0-1.2-1.2-1.9v-0.2q0.8-0.1 1.6-0.4 0.7-0.3 1.5-0.6v15.9q0.4-2.1 1-3.6 0.6-1.6 1.3-2.6 0.8-1 1.6-1.6 0.8-0.5 1.7-0.6 0.7-0.1 1.6 0.1 0.9 0.1 1.7 0.6 0.8 0.5 1.4 1.3 0.6 0.7 0.8 1.9 0.1 0.6 0 1.3-0.1 1.3-0.2 2.5-0.1 1.1-0.3 2.3-0.1 1.2-0.2 2.2 0 1.2 1.1 1.6v0.2h-4.3v-0.2q0.6-0.3 0.9-0.7 0.4-0.4 0.5-0.9 0.1-0.8 0.2-1.7 0.1-1 0.2-1.9 0.1-1.4 0.2-2.4 0.1-1.1 0.1-1.4 0.1-0.9-0.2-1.7-0.2-0.8-0.7-1.4-0.4-0.6-1.1-0.9-0.6-0.4-1.4-0.4-0.8 0-1.7 0.5-0.9 0.5-1.7 1.7-0.8 1.2-1.5 3.1-0.6 1.9-1 4.8v1.5q0 0.6 0.4 1 0.3 0.5 0.8 0.8v0.2h-4.3v-0.2q0.6-0.3 0.9-0.8z"/><path fill-rule="evenodd" class="a" d="m44.7 36.9q-0.2-1.4 0.3-2.8 0.4-1.4 1.4-2.5 1-1.1 2.6-1.8 1.6-0.7 3.8-0.7 1.6 0 2.9 0.4 1.2 0.5 2.1 1.2 0.9 0.7 1.4 1.6 0.5 0.8 0.5 1.6 0 0.6-0.3 1-0.3 0.5-0.8 0.8-0.7 0.4-1.7 0.7-1 0.3-2.1 0.6-1.1 0.3-2.2 0.6-1.2 0.3-2.1 0.8-0.9 0.4-1.5 1-0.6 0.6-0.7 1.4 1 1.1 2.3 1.7 1.4 0.5 2.8 0.5 1.7 0 3.2-0.7 1.6-0.6 2.5-1.6l0.3 0.1q-0.6 0.8-1.6 1.4-0.9 0.5-2.1 1-1.3 0.4-3.1 0.4-1.8 0-3.3-0.6-1.4-0.6-2.4-1.5-1-0.9-1.6-2.1-0.5-1.2-0.6-2.5zm7.7-7.4q-1.2 0-2.3 0.5-1.2 0.6-2 1.5-0.8 0.9-1.2 2.1-0.5 1.2-0.4 2.6 0.1 1.4 0.5 2.5 0.4 1.1 1 1.9 0.1-0.8 0.6-1.4 0.6-0.6 1.4-1 0.8-0.4 1.8-0.8 1-0.3 2-0.6 1-0.4 1.9-0.7 0.8-0.3 1.4-0.7 0.5-0.4 0.7-1 0.2-0.6 0-1.2-0.5-1.7-1.8-2.7-1.4-1-3.6-1z"/><path class="a" d="m60.7 43q0.5-0.3 0.8-0.7 0.4-0.5 0.4-1.1v-16.4q-0.1-1.2-1.2-1.9v-0.2q0.8-0.1 1.5-0.4 0.8-0.3 1.6-0.6v19.5q0 0.4 0.3 0.9 0.3 0.6 0.8 0.9v0.2h-4.2z"/><path fill-rule="evenodd" class="a" d="m66.2 36.2q0-1.3 0.5-2.7 0.5-1.3 1.5-2.3 1-1 2.6-1.6 1.5-0.7 3.6-0.7 1.6 0 2.8 0.5 1.3 0.5 2.2 1.2 0.9 0.7 1.4 1.5 0.5 0.9 0.5 1.7 0 0.6-0.3 1-0.4 0.4-0.8 0.8-1.1 0.5-2.7 1-1.6 0.4-3.3 0.9-0.8 0.2-1.5 0.5-0.8 0.3-1.4 0.7-0.6 0.3-1 0.8-0.4 0.5-0.5 1.1 0.8 0.9 2 1.7 1.2 0.8 2.9 1.3 1.6 0.6 3.9 0.9 2.2 0.3 5.1 0.3 0.8 0 1.8 0 1-0.1 2.1-0.3 1-0.1 2-0.5 1.1-0.3 1.8-0.8 0.8-0.5 1.3-1.2 0.5-0.7 0.5-1.8 0-0.6-0.7-1.2-0.8-0.5-2-0.9-1.2-0.5-2.6-1-1.4-0.4-2.6-1-1.2-0.6-2.1-1.4-0.8-0.7-0.8-1.8 0-1 0.6-1.7 0.5-0.7 1.3-1.2 0.8-0.4 1.8-0.6 1-0.2 2-0.2 1.9 0 3 0.3 1.2 0.3 1.8 0.7 0.7 0.4 1 1h-2.1q-0.1-0.5-0.5-0.9-0.5-0.3-1.3-0.6-0.8-0.3-2.3-0.3-0.6 0-1.3 0.2-0.8 0.2-1.4 0.6-0.6 0.3-1 0.8-0.4 0.5-0.4 1.2 0 0.8 0.9 1.4 0.8 0.6 2 1.1 1.3 0.6 2.7 1 1.4 0.5 2.7 1.1 1.2 0.5 2 1.2 0.9 0.7 0.9 1.7 0 2.6-2.8 4-2.8 1.4-8.7 1.4-4.9 0-8.2-0.7-3.2-0.8-5.2-2-2-1.3-2.9-2.9-0.8-1.6-0.8-3.3zm7.8-6.9q-1.3 0-2.3 0.6-1.1 0.5-1.9 1.4-0.8 0.9-1.3 2.1-0.5 1.1-0.5 2.5 0 1.2 0.4 2.3 0.4 1.1 1.2 2.2 0.1-0.8 0.7-1.4 0.5-0.6 1.4-1 0.8-0.4 1.8-0.8 1-0.3 1.9-0.6 1-0.3 1.9-0.6 0.8-0.4 1.3-0.8 0.5-0.3 0.7-0.9 0.2-0.6 0.1-1.2-0.5-1.8-1.8-2.8-1.4-1-3.6-1z"/><path class="a" d="m96 29.8v-0.3h3.8q-0.9-0.2-1.6-0.6-0.6-0.4-1.1-1-0.5-0.5-0.7-1-0.2-0.6-0.3-0.9h2.1q0.1 1.1 0.4 1.7 0.2 0.7 0.9 1.2 0.7 0.6 2 0.6h0.2v0.3h-2.6v11.1q0 1.3 0.3 1.7 0.4 0.4 0.9 0.4 0.3 0 0.6-0.1 0.1-0.1 0.2-0.1l0.2 0.2q-0.1 0.1-0.5 0.2-0.4 0.1-1 0.1-0.5 0-0.9-0.1-0.5-0.1-0.8-0.3-0.4-0.3-0.7-0.7-0.2-0.4-0.2-1v-11.4z"/><path fill-rule="evenodd" class="a" d="m110.6 43.6q-1.6 0-3.1-0.6-1.5-0.5-2.7-1.5-1.1-1-1.8-2.3-0.6-1.3-0.6-2.8 0-1.5 0.6-2.8 0.6-1.3 1.7-2.3 1-1 2.5-1.5 1.5-0.6 3.1-0.6 1.7 0 3.2 0.6 1.5 0.5 2.7 1.5 1.1 1 1.7 2.3 0.7 1.3 0.7 2.8 0 1.5-0.6 2.8-0.6 1.3-1.7 2.3-1.1 1-2.5 1.5-1.5 0.6-3.2 0.6zm-2.8-13q-1.3 0.7-2.2 1.7-0.9 1-1.4 2.2-0.5 1.2-0.4 2.5 0 1.4 0.6 2.7 0.7 1.6 2.2 2.4 1.5 0.9 3.3 0.9 1.6 0 3.2-0.8 1.3-0.7 2.2-1.7 0.9-1 1.4-2.2 0.5-1.2 0.5-2.6 0-1.3-0.6-2.7-0.7-1.5-2.2-2.4-1.5-0.8-3.2-0.8-1.8 0-3.4 0.8z"/><path class="a" d="m122.6 29.3v0.2q-0.6 0.3-0.8 0.8-0.2 0.5 0 1.1 0.3 0.8 0.7 1.7 0.5 1 0.9 2.1 0.5 1 0.9 2 0.5 1.1 0.8 1.9 0.3 0.6 0.5 1.1 0.2 0.5 0.4 0.8 0.2 0.4 0.3 0.7 0.5-1 0.9-2.2 0.4-1 1-2.1 0.5-1.2 1-2.5 0.6-1.2 0.6-1.9 0.1-0.8 0-1.2-0.2-0.5-0.6-0.7l1.2-1.7q0.4 0.2 0.6 0.6 0.1 0.3 0.1 1 0 0.6-0.4 1.6-0.2 0.3-0.3 0.6-0.1 0.3-0.3 0.6-0.1 0.4-0.3 0.8-0.4 0.9-0.9 2-0.5 1-1 2.2-0.5 1.2-1 2.3-0.5 1.2-0.9 2.1h-0.9q-0.1-0.3-0.4-1.1-0.4-0.7-0.8-1.8-0.4-1-1-2.2-0.5-1.2-1.1-2.4-0.5-1.2-1-2.3-0.5-1.2-0.9-2.1-0.5-1.2-1.6-1.8v-0.2z"/><path fill-rule="evenodd" class="a" d="m130.8 40.2q0-0.7 0.8-1.3 0.7-0.5 1.9-1 1.1-0.5 2.4-0.9 1.3-0.5 2.4-1.1 1.2-0.6 1.9-1.4 0.7-0.8 0.7-2-0.2-1.5-0.9-2.3-0.7-0.8-2.5-0.8-0.9 0.1-1.5 0.3-0.5 0.3-0.8 0.6-0.3 0.4-0.4 0.9h-2q0.2-0.6 0.6-0.9 0.4-0.3 1.2-0.6 0.7-0.4 2-0.5 0.3 0 0.6 0 0.3 0 0.6 0 1.4 0 2.4 0.3 1 0.3 1.5 1 0.6 0.6 0.8 1.7 0.2 1 0.2 2.3v9.7q0 0.9 0.1 1.8 0 0.9 0.3 1.6 0.3 0.7 0.8 1.3 0.5 0.5 1.4 0.6 1.7 0.2 3.2-0.3 1.4-0.5 2.9-1.3 1.5-0.9 3.4-1.9 1.8-1 4.3-1.8 2.1-0.7 4-0.7 2.1 0 4 0.7 1.9 0.8 3.6 2.2l-0.7 1.9q-1.2-1.8-2.6-3-1.5-1.1-3.4-1.1-0.7 0-1.4 0.1-2 0.5-3.6 1.1-1.6 0.6-3 1.3-1.5 0.6-2.7 1.2-1.3 0.7-2.6 1.1-1.3 0.4-2.7 0.6-1.3 0.2-2.9 0.1-2.2-0.3-3.1-1.6-1-1.3-1-3.9v-2.5q-0.2 0.2-0.7 0.5-0.6 0.3-1.3 0.6-0.7 0.3-1.6 0.5-0.9 0.3-1.8 0.3-1 0-1.9-0.2-0.8-0.2-1.5-0.6-0.6-0.4-1-1.1-0.4-0.6-0.4-1.5zm10.2-6.4q-0.4 0.9-1.2 1.5-0.8 0.6-1.8 1.1-0.9 0.5-1.9 0.8-1 0.4-1.8 0.8-0.8 0.4-1.2 0.8-0.5 0.5-0.5 1.2 0.1 0.8 0.4 1.4 0.3 0.6 0.8 0.9 0.4 0.4 1 0.5 0.6 0.2 1.3 0.2 0.6 0 1.3-0.2 0.7-0.1 1.4-0.4 0.7-0.2 1.2-0.5 0.6-0.3 1-0.6z"/><path class="a" d="m12.4 19.7q0.3-0.6 0.3-1.2v-15.9q0-0.7-0.3-1.2-0.3-0.6-0.8-0.9v-0.2h15.3q-0.1 0.4-0.2 0.7-0.2 0.4-0.3 0.7-0.1 0.4-0.3 0.7-0.8-0.6-1.9-1-1.1-0.3-2.3-0.5-1.2-0.2-2.4-0.2-1.3 0-2.3 0h-2.6v9.5q2.3-0.4 4.3-0.8 0.8-0.1 1.6-0.3 0.8-0.1 1.5-0.2 0.7-0.2 1.2-0.3 0.4-0.1 0.6-0.1-0.2 0.5-0.4 1-0.1 0.3-0.2 0.5-0.5-0.4-1.1-0.6-0.5-0.1-1.2 0l-6.3 1.2v9.9h2.6q1.4-0.1 3.2-0.2 1.7 0 3.3-0.5 0.6-0.1 1.3-0.4 0.6-0.3 1.1-0.6l0.8 2h-15.3v-0.2q0.5-0.3 0.8-0.9z"/><path class="a" d="m28.6 6.9v0.2q-0.6 0.3-0.8 0.8-0.2 0.5 0 1.1 0.4 0.7 0.8 1.7 0.4 1 0.9 2 0.4 1.1 0.9 2.1 0.4 1 0.8 1.9 0.2 0.6 0.5 1.1 0.2 0.4 0.3 0.8 0.2 0.4 0.4 0.7 0.4-1.1 0.9-2.2 0.4-1 0.9-2.2 0.5-1.1 1-2.4 0.6-1.2 0.7-1.9 0.1-0.8-0.1-1.2-0.1-0.5-0.6-0.8l1.2-1.7q0.4 0.2 0.6 0.7 0.2 0.3 0.2 0.9 0 0.7-0.5 1.7-0.1 0.3-0.2 0.6-0.2 0.2-0.3 0.6-0.2 0.4-0.4 0.8-0.4 0.9-0.9 1.9-0.4 1.1-0.9 2.3-0.5 1.2-1.1 2.3-0.5 1.1-0.9 2.1h-0.8q-0.2-0.3-0.5-1.1-0.3-0.7-0.8-1.8-0.4-1-0.9-2.2-0.6-1.2-1.1-2.4-0.5-1.2-1-2.4-0.5-1.1-0.9-2-0.6-1.2-1.6-1.8v-0.2z"/><path fill-rule="evenodd" class="a" d="m39.3 24.3q0 0.9 0.6 1.5 0.7 0.7 1.7 1.1 1 0.4 2.2 0.6 1.1 0.1 2 0.1 0.9 0 2.1-0.1 1.2-0.1 2.2-0.4 1.1-0.4 1.8-1 0.7-0.6 0.7-1.5 0-1.1-0.9-1.7-1-0.5-2.5-0.7-1.5-0.3-3.3-0.4-1.7 0-3.2-0.2-1.5-0.2-2.5-0.7-1-0.4-1-1.5 0-0.2 0.1-0.5 0-0.2 0.1-0.5 0.2-0.3 0.4-0.7 0.3-0.3 0.8-0.9-1.2-0.8-1.9-1.9-0.7-1-0.7-2.3 0-1.3 0.7-2.4 0.6-1.1 1.7-1.8 1.1-0.8 2.5-1.2 1.4-0.4 2.9-0.4 0.6 0 1.2 0 0.7 0.1 1.3 0.3 0.1-0.1 0.1-0.1 0.6-0.8 1.8-1.3 1.3-0.6 3.1-0.5v1.9q-1.2-0.8-2.2-0.9-0.8 0-1.4 0.2-0.6 0.3-0.9 0.7l-0.1 0.1q1.2 0.4 2.1 1 0.9 0.6 1.6 1.3 0.6 0.7 0.9 1.5 0.4 0.8 0.4 1.6 0 1.3-0.7 2.3-0.7 1.1-1.8 1.9-1.1 0.7-2.5 1.2-1.4 0.4-2.9 0.4-1.3 0-2.6-0.4-1.3-0.4-2.4-1l-0.2 0.3q-0.2 0.3-0.4 0.6-0.2 0.2-0.3 0.6-0.2 0.3-0.2 0.6 0 0.7 0.6 1.1 0.7 0.4 1.7 0.6 1.1 0.2 2.4 0.3 1.4 0.1 2.8 0.1 1.4 0.1 2.8 0.2 1.3 0.1 2.4 0.4 1 0.4 1.7 0.9 0.7 0.6 0.7 1.6 0 1-0.9 1.7-0.9 0.7-2.2 1.1-1.4 0.5-3 0.7-1.7 0.2-3.2 0.2-0.5 0-1.3-0.1-0.8 0-1.7-0.2-1-0.1-1.9-0.4-0.9-0.2-1.7-0.6-0.7-0.4-1.2-1-0.4-0.6-0.4-1.4zm3.8-16.5q-1.1 0.4-1.8 1.2-0.8 0.8-1.2 1.8-0.4 1-0.4 2.1 0 1 0.6 2 0.4 0.7 0.8 1.1 1-1.2 2.6-3.3 1.7-2 4.4-5.3-0.9-0.3-1.8-0.3-1.6 0-3.2 0.7zm-1.7 8.5q0.9 0.8 2 1.2 1.2 0.4 2.4 0.4 0.8 0 1.6-0.2 0.8-0.2 1.5-0.5 1.1-0.4 1.8-1.2 0.7-0.8 1-1.7 0.4-1 0.3-2-0.1-1.1-0.6-2.1-1.1-2-2.9-2.7z"/><path fill-rule="evenodd" class="a" d="m55.2 14.3q-0.1-1.4 0.3-2.8 0.5-1.4 1.5-2.5 1-1.2 2.6-1.8 1.6-0.7 3.8-0.7 1.6 0 2.8 0.4 1.3 0.5 2.2 1.2 0.9 0.7 1.4 1.5 0.5 0.9 0.5 1.7 0 0.6-0.3 1-0.4 0.5-0.8 0.8-0.7 0.4-1.7 0.7-1 0.3-2.1 0.6-1.1 0.3-2.2 0.6-1.2 0.3-2.1 0.8-0.9 0.4-1.5 1-0.6 0.6-0.8 1.4 1 1.1 2.2 1.6 1.3 0.5 2.7 0.5 1.4 0 2.5-0.5 1.2-0.4 2.2-1.1 1-0.8 1.8-1.8 0.9-1 1.7-2.2v-5.8q-0.1-1.2-1.2-1.9v-0.2q0.8-0.1 1.5-0.4 0.8-0.3 1.5-0.7v6.2q0.7-1 1.4-1.9 0.6-0.9 1.3-1.6 0.7-0.7 1.4-1.2 0.7-0.4 1.5-0.5 0.7 0 1.6 0.2 0.9 0.1 1.7 0.6 0.8 0.5 1.4 1.2 0.6 0.8 0.8 1.9 0.1 0.7 0 1.4-0.1 1.3-0.2 2.5-0.1 1.1-0.2 2.3-0.2 1.2-0.2 2.1 0 1.3 1 1.7v0.2h-4.2v-0.2q0.5-0.3 0.9-0.7 0.4-0.4 0.4-1 0.1-0.8 0.2-1.7 0.1-0.9 0.2-1.8 0.1-1.4 0.2-2.5 0.1-1 0.2-1.3 0-0.9-0.3-1.7-0.2-0.9-0.7-1.5-0.5-0.6-1.2-0.9-0.7-0.4-1.4-0.3-1.4 0.2-2.6 1.2-1.1 1.1-2.2 2.7-1 1.6-2.1 3.3-1.1 1.8-2.4 3.3-1.3 1.4-3 2.4-1.8 0.9-4 0.9-1.9 0-3.3-0.6-1.4-0.6-2.4-1.5-1-0.9-1.6-2.1-0.5-1.2-0.7-2.5zm7.8-7.4q-1.2 0-2.4 0.5-1.1 0.5-1.9 1.5-0.8 0.9-1.2 2.1-0.5 1.2-0.4 2.6 0.1 1.4 0.5 2.5 0.4 1.1 1 1.9 0.1-0.8 0.6-1.4 0.6-0.6 1.4-1 0.8-0.5 1.8-0.8 1-0.3 2-0.7 1-0.3 1.8-0.6 0.9-0.3 1.4-0.7 0.5-0.4 0.7-1 0.2-0.6 0.1-1.2-0.5-1.8-1.8-2.8-1.4-0.9-3.6-0.9zm7.7 13.7q1.1-0.7 1.2-1.9v-2.8q0.4-0.6 0.9-1.3 0.5-0.7 0.9-1.4v5.6q0.2 1.2 1.2 1.8v0.2h-4.2z"/><path class="a" d="m86.8 7.1h4.3v0.2q-0.5 0.2-0.9 0.7-0.3 0.5-0.3 1.2v9.6q0.1 1.2 1.2 1.8l-0.1 0.2h-4.2v-0.2q0.5-0.3 0.9-0.8 0.3-0.5 0.3-1v-9.7q0-0.6-0.3-1-0.4-0.5-0.9-0.8zm2.2-2.7q-0.5 0-0.9-0.3-0.3-0.3-0.3-0.8 0-0.4 0.3-0.7 0.4-0.3 0.9-0.3 0.5 0 0.9 0.3 0.4 0.3 0.4 0.7 0 0.5-0.4 0.8-0.4 0.3-0.9 0.3z"/><path class="a" d="m96.4 6.9v0.2q-0.7 0.3-0.6 0.9 0 0.6 0.3 1.3 0.6 1.2 1.3 2.9 0.7 1.6 1.4 3.1 0.8 1.7 1.5 3.5l3.1-7.1q0.3-0.9 0.3-1.5-0.1-0.5-0.2-0.9-0.2-0.4-0.5-0.6l1.1-1.8q0.4 0.2 0.6 0.6 0.1 0.4 0.1 1 0 0.7-0.4 1.7-0.5 1.2-1.1 2.6-0.6 1.4-1.2 2.9-0.7 1.5-1.3 2.9-0.6 1.4-1.1 2.6-0.3 0.7-0.6 1.4-0.3 0.6-0.5 1-0.2 0.6-0.4 1-0.6 1.2-1 1.9-0.5 0.7-0.9 1-0.5 0.3-0.9 0.4-0.4 0.1-0.9 0.1 0-0.1 0.1-0.4 0.1-0.3 0.2-0.6 0.2-0.4 0.3-0.9 0.4 0.2 0.8 0 0.4-0.1 0.8-0.3 0.4-0.3 0.9-1.1 0.4-0.7 0.9-1.7 0.4-0.9 0.9-2.2 0-0.1-0.1-0.3-0.1-0.1-0.2-0.3-0.1-0.2-0.2-0.5-0.4-0.9-1-2.2-0.6-1.4-1.3-3-0.7-1.5-1.3-3-0.7-1.4-1.2-2.5-0.1-0.3-0.3-0.6-0.3-0.3-0.5-0.6-0.3-0.2-0.6-0.4-0.3-0.2-0.5-0.3v-0.2z"/><path fill-rule="evenodd" class="a" d="m109.5 21.2q-0.9 0-1.8-0.2-0.9-0.2-1.5-0.6-0.7-0.4-1.1-1.1-0.3-0.6-0.3-1.5 0-0.8 0.7-1.3 0.8-0.5 1.9-1 1.1-0.5 2.4-0.9 1.3-0.5 2.5-1.1 1.1-0.6 1.9-1.4 0.7-0.9 0.7-2.1-0.2-1.4-0.9-2.2-0.7-0.8-2.5-0.7-1 0-1.5 0.3-0.6 0.2-0.8 0.5-0.4 0.4-0.4 0.9h-2q0.2-0.5 0.6-0.9 0.4-0.3 1.1-0.6 0.8-0.4 2.1-0.5 0.2 0 0.5 0h0.7q1.4 0 2.4 0.3 0.9 0.3 1.5 1 0.5 0.7 0.7 1.7 0.3 1 0.3 2.3v6.5q0 0.6 0.3 1.1 0.3 0.6 0.8 0.9v0.2h-1.3q-0.7 0-1.1-0.5-0.4-0.4-0.4-1-0.3 0.1-0.8 0.5-0.5 0.3-1.3 0.6-0.7 0.3-1.6 0.5-0.9 0.3-1.8 0.3zm5.5-9.8q-0.5 0.9-1.3 1.5-0.8 0.7-1.7 1.1-0.9 0.5-1.9 0.8-1 0.4-1.8 0.8-0.8 0.4-1.3 0.8-0.4 0.5-0.4 1.2 0.2 1.7 1.1 2.3 1 0.6 2.3 0.6 0.7 0 1.4-0.1 0.7-0.1 1.3-0.4 0.7-0.2 1.3-0.5 0.5-0.3 1-0.7z"/></g></svg>