<svg version="1.2" xmlns="http://www.w3.org/2000/svg" viewBox="0 0 112 29" width="112" height="29"><defs><clipPath clipPathUnits="userSpaceOnUse" id="cp1"><path d="m-519-448h960v2998h-960z"/></clipPath></defs><style>.a{fill:#161615}</style><g clip-path="url(#cp1)"><path class="a" d="m111.5 25.9l-0.6 1.6q-1-1.5-2.2-2.4-1.1-1-2.7-1-0.6 0-1.3 0.1-2.1 0.5-3.7 1.2-1.7 0.8-3.1 1.5-1.5 0.7-2.8 1.2-1.4 0.5-3.1 0.5-0.9 0-1.7-0.2-1.2-0.2-1.8-0.8-0.7-0.7-1-1.6-0.4-0.9-0.5-2-0.1-1.1-0.1-2.2v-9.5h-3.5v-0.2h6.3q-0.7-0.2-1.3-0.5-0.5-0.4-0.9-0.8c-0.3-0.3-0.6-0.7-0.6-1.5v-0.1q0 0 0 0v-0.3-5.5q0-0.3-0.3-0.8-0.3-0.5-0.7-0.7v-0.2h3.5v0.2q-0.4 0.2-0.7 0.6-0.3 0.4-0.3 0.8v3.7c0 0.6 0 2.2 0 2.2q0 0.9 0.3 1.4 0.2 0.6 0.8 1 0.5 0.5 1.6 0.5h0.2v0.2h-2.9v8.7q0 0.5 0 1.2 0.1 0.7 0.1 1.5 0 0.7 0.1 1.5 0.1 0.7 0.4 1.3 0.2 0.7 0.6 1.1 0.3 0.4 0.9 0.4 1.2 0.2 2.4-0.1 1.1-0.3 2.5-0.9 1.3-0.6 2.9-1.3 1.6-0.8 3.7-1.5 1.8-0.6 3.4-0.6 1.7 0 3.2 0.6 1.4 0.6 2.9 1.7z"/><path class="a" d="m43.9 10.8q0.7-0.1 1.3-0.3 0.7-0.3 1.3-0.6v7.6q0.3-1.7 0.8-3 0.5-1.3 1.1-2.1c0.4-0.6 0.9-1.1 1.3-1.3 1-0.6 1.7-0.6 2.2-0.5q0.7 0.2 1.4 0.5 0.7 0.4 1.2 1.1c0.3 0.4 0.6 1.1 0.7 2.1 0 0.6 0 4.6-0.1 6.5q0 0.9 0.9 1.3v0.2h-3.5v-0.2q0.4-0.2 0.7-0.6 0.3-0.3 0.4-0.8c0.1-0.5 0-4.8 0-5.3 0-0.7 0-1.9-0.2-2.3-0.1-0.5-0.2-0.8-0.4-1.1q-0.4-0.5-1-0.8c-0.6-0.3-1.6-0.1-2.1 0.2q-0.7 0.4-1.4 1.5-0.6 1-1.2 2.6-0.5 1.6-0.8 3.9v1.2q0 0.5 0.3 0.9 0.2 0.4 0.7 0.6v0.2h-3.6v-0.2q0.5-0.2 0.8-0.6 0.2-0.4 0.3-0.9v-8.1q-0.1-1-1.1-1.5z"/><path fill-rule="evenodd" class="a" d="m0.5 24.2q0.5-0.1 1.1-0.1 1.1 0 2.1 0.4 1 0.3 1.9 0.7 0.9 0.3 1.8 0.7 0.8 0.3 1.5 0.3 0.6 0 1.1-0.3 0.5-0.2 0.9-0.6 0.3-0.4 0.6-0.9 0.2-0.6 0.3-1.1-0.6 0.1-1.2 0.1-0.5 0-0.9-0.1-0.5 0-0.9-0.1-1.1-0.3-1.6-0.8-0.6-0.4-0.8-0.9-0.3-0.5-0.2-1.1 0.1-0.8 0.7-1.3 0.7-0.5 1.4-0.5 0.8 0 1.5 0.4 0.6 0.4 1.1 1 0.5 0.6 0.8 1.4 0.3 0.7 0.4 1.4 0 0 0 0.1 0.5-0.1 1.1-0.4 0.5-0.3 0.9-0.7 0.5-0.4 0.8-1 0.2-0.5 0.2-1 0-0.6-0.6-1-0.7-0.4-1.7-0.8-1-0.3-2.1-0.7-1.2-0.4-2.2-0.9-1-0.5-1.6-1.1-0.7-0.7-0.7-1.5 0-0.9 0.4-1.5 0.4-0.5 1.1-0.9 0.7-0.4 1.5-0.6 0.9-0.1 1.7-0.1 1.5 0 2.5 0.2 0.9 0.3 1.4 0.6 0.6 0.4 0.9 0.9h-1.7q-0.1-0.5-0.5-0.8-0.3-0.3-1-0.5-0.7-0.2-1.9-0.2-0.5 0-1.1 0.1-0.6 0.2-1.1 0.5-0.5 0.3-0.9 0.7-0.3 0.4-0.3 1 0 0.6 0.7 1.1 0.7 0.5 1.7 1 1 0.4 2.2 0.8 1.2 0.4 2.2 0.8 1 0.5 1.7 1.1 0.7 0.6 0.7 1.4 0 0.7-0.3 1.4-0.4 0.6-1 1.1-0.6 0.5-1.4 0.9-0.8 0.3-1.5 0.4 0 1.1-0.3 2-0.4 0.9-1.1 1.3-0.7 0.5-1.5 0.5-0.7 0-1.3-0.3-0.7-0.2-1.4-0.6-0.6-0.3-1.2-0.6-0.7-0.4-1.3-0.6-0.4-0.1-0.8-0.1-0.8 0-1.6 0.3-0.8 0.3-1.2 0.9zm6.9-3.5q-0.1 0.4 0.1 0.8 0.1 0.4 0.5 0.7 0.3 0.4 1.1 0.7 0.8 0.2 1.6 0.2 0.3 0 0.6-0.1 0.2 0 0.5 0 0-0.5-0.1-1.1-0.2-0.6-0.5-1.1-0.2-0.5-0.7-0.9-0.4-0.3-0.9-0.5-0.3-0.1-0.6 0-0.4 0-0.7 0.1-0.3 0.2-0.5 0.5-0.3 0.3-0.4 0.7z"/><path class="a" d="m17.7 17.3q0-1.7 0.6-2.9 0.6-1.3 1.6-2.1 1-0.9 2.3-1.3 1.3-0.5 2.8-0.5 1.3 0 2.2 0.3 0.9 0.2 1.4 0.6 0.5 0.3 0.9 0.8h-1.7q-0.1-0.4-0.6-0.7-0.3-0.2-1-0.5-0.6-0.2-1.7-0.2-1.1 0-2 0.4-1 0.3-1.6 1.1-0.7 0.8-1.1 1.9-0.5 1.2-0.5 2.9c0 1.6 0.5 3 0.8 4.3 0.9 4.2 4.4 6 5.6 5.9 2 0 4.4-1.3 5.2-1.8q1.2-0.6 2.4-1.2 1.3-0.6 2.6-1 1.4-0.3 2.8-0.3 1.5 0 3 0.5 1.6 0.6 3.3 2l-0.6 1.5q-0.9-1.5-2.1-2.5-1.2-0.9-2.8-0.9-0.6 0-1.2 0.1-1.6 0.4-3 0.9-1.3 0.5-2.5 1-1.1 0.5-2.2 1c-0.7 0.3-2.6 1.2-4.8 1.2-1.8 0-4.1-1.5-5.1-2.4-0.5-0.6-1-1.5-1.5-2.2q-0.6-1.1-1.1-2.6-0.4-1.5-0.4-3.3z"/><path class="a" d="m23.2 8.7h3.5v0.2q-0.4 0.2-0.7 0.6-0.3 0.4-0.3 1v7.9q0.1 1 1 1.5v0.2h-3.5v-0.2q0.4-0.2 0.7-0.6 0.3-0.4 0.3-0.9v-8q0-0.4-0.3-0.8-0.3-0.4-0.7-0.7zm1.7-5.1q-0.4 0-0.7-0.3-0.3-0.3-0.3-0.6 0-0.4 0.3-0.6 0.3-0.3 0.7-0.3 0.5 0 0.8 0.3 0.3 0.2 0.3 0.6 0 0.3-0.3 0.6-0.3 0.3-0.8 0.3z"/><path fill-rule="evenodd" class="a" d="m30 16.3q-0.1-1.1 0.2-2.3 0.4-1.2 1.2-2.1 0.9-0.9 2.2-1.5 1.3-0.5 3.1-0.5 1.3 0 2.4 0.3 1 0.4 1.8 1 0.7 0.6 1.1 1.3 0.4 0.7 0.4 1.4 0 0.5-0.2 0.8-0.3 0.4-0.7 0.6-0.6 0.3-1.4 0.6-0.8 0.2-1.7 0.5-0.9 0.2-1.9 0.5-0.9 0.3-1.7 0.6-0.7 0.4-1.2 0.9-0.6 0.5-0.6 1.2 0.8 0.9 1.9 1.3 1.1 0.4 2.3 0.4 1.4 0 2.7-0.5 1.3-0.5 2-1.4l0.2 0.2q-0.5 0.6-1.3 1.1-0.7 0.4-1.7 0.8-1.1 0.4-2.6 0.3-1.5 0-2.7-0.4-1.1-0.5-2-1.3-0.8-0.7-1.3-1.7-0.4-1-0.5-2.1zm6.4-6.1q-1 0-2 0.4-0.9 0.5-1.5 1.2-0.7 0.8-1.1 1.8-0.4 1-0.3 2.1 0.1 1.2 0.4 2.1 0.3 0.9 0.9 1.6 0-0.7 0.5-1.2 0.4-0.4 1.1-0.8 0.7-0.4 1.5-0.7 0.8-0.2 1.6-0.5 0.9-0.3 1.6-0.5 0.7-0.3 1.1-0.6 0.4-0.3 0.6-0.8 0.2-0.5 0-1-0.3-1.5-1.5-2.3-1.1-0.8-2.9-0.8z"/><path class="a" d="m67.8 11h3.5v0.1q-0.4 0.2-0.7 0.6-0.3 0.4-0.3 1v7.9q0.1 1 1 1.5l-0.1 0.2h-3.4v-0.2q0.4-0.2 0.7-0.6 0.3-0.4 0.3-0.9v-8q-0.1-0.4-0.3-0.8-0.3-0.4-0.7-0.7zm1.8-2.2q-0.4 0-0.7-0.2-0.4-0.3-0.4-0.7 0-0.3 0.4-0.6 0.3-0.3 0.7-0.3 0.4 0 0.7 0.3 0.3 0.3 0.3 0.6 0 0.4-0.3 0.7-0.3 0.2-0.7 0.2z"/><path fill-rule="evenodd" class="a" d="m69.1 24.2q0.5-0.1 1.1-0.1 1.1 0 2.1 0.4 1 0.3 1.9 0.7 0.9 0.3 1.7 0.7 0.8 0.3 1.6 0.3 0.5 0 1-0.3 0.5-0.2 0.9-0.6 0.4-0.4 0.7-0.9 0.2-0.6 0.2-1.1-0.5 0.1-1.1 0.1-0.5 0-1-0.1-0.4 0-0.8-0.1-1.1-0.3-1.7-0.8-0.5-0.4-0.8-0.9-0.2-0.5-0.2-1.1 0.1-0.8 0.8-1.3 0.6-0.5 1.4-0.5 0.8 0 1.4 0.4 0.7 0.4 1.2 1 0.5 0.6 0.8 1.4 0.3 0.7 0.4 1.4 0 0 0 0.1 0.5-0.1 1-0.4 0.5-0.3 1-0.7 0.4-0.4 0.7-1 0.3-0.5 0.3-1 0-0.6-0.7-1-0.6-0.4-1.6-0.8-1-0.3-2.2-0.7-1.1-0.4-2.1-0.9-1-0.5-1.7-1.1-0.6-0.7-0.6-1.5 0-0.9 0.4-1.5 0.4-0.5 1.1-0.9 0.7-0.4 1.5-0.6 0.8-0.1 1.6-0.1 1.6 0 2.5 0.2 1 0.3 1.5 0.6 0.6 0.4 0.8 0.9h-1.7q-0.1-0.5-0.4-0.8-0.4-0.3-1.1-0.5-0.6-0.2-1.8-0.2-0.6 0-1.2 0.1-0.6 0.2-1.1 0.5-0.5 0.3-0.8 0.7-0.4 0.4-0.3 1-0.1 0.6 0.6 1.1 0.7 0.5 1.7 1 1.1 0.4 2.3 0.8 1.2 0.4 2.2 0.8 1 0.5 1.7 1.1 0.7 0.6 0.7 1.4 0 0.7-0.4 1.4-0.3 0.6-1 1.1-0.6 0.5-1.3 0.9-0.8 0.3-1.6 0.4 0.1 1.1-0.3 2-0.3 0.9-1.1 1.3-0.6 0.5-1.5 0.5-0.6 0-1.3-0.3-0.7-0.2-1.3-0.6-0.7-0.3-1.3-0.6-0.6-0.4-1.2-0.6-0.4-0.1-0.9-0.1-0.7 0-1.5 0.3-0.8 0.3-1.2 0.9zm6.9-3.5q-0.1 0.4 0 0.8 0.2 0.4 0.5 0.7 0.4 0.4 1.1 0.7 0.9 0.2 1.6 0.2 0.3 0 0.6-0.1 0.3 0 0.6 0 0-0.5-0.2-1.1-0.1-0.6-0.4-1.1-0.3-0.5-0.7-0.9-0.4-0.3-0.9-0.5-0.3-0.1-0.7 0-0.3 0-0.6 0.1-0.3 0.2-0.6 0.5-0.2 0.3-0.3 0.7z"/><path class="a" d="m62.2 13.1v7.3q0 1 0.3 1.4 0.4 0.3 0.8 0.3 0.2 0 0.4-0.1 0.1 0 0.2-0.1l0.2 0.2q-0.1 0.1-0.4 0.2-0.4 0-0.9 0-0.3 0-0.7 0-0.4-0.1-0.7-0.3-0.3-0.2-0.5-0.5-0.2-0.4-0.2-0.9v-9.3-0.1h-3.5v-0.2h6.3q-0.7-0.2-1.2-0.5-0.6-0.4-1-0.8c-0.2-0.3-0.5-0.7-0.6-1.5v-0.1q0 0 0 0v-0.3-5.5q0-0.4-0.3-0.8-0.2-0.5-0.7-0.7v-0.2h3.5v0.2q-0.4 0.2-0.7 0.6-0.2 0.4-0.3 0.8v3.7c0.1 0.6 0 2.2 0 2.2q0.1 0.9 0.3 1.4 0.2 0.6 0.8 1 0.5 0.5 1.6 0.5h0.2v0.2h-2.9v1.9z"/></g></svg>