<svg version="1.2" xmlns="http://www.w3.org/2000/svg" viewBox="0 0 445 378" width="445" height="378"><defs><clipPath clipPathUnits="userSpaceOnUse" id="cp1"><path d="m-257-122h960v2998h-960z"/></clipPath></defs><style>.a{fill:#c4a171}</style><g clip-path="url(#cp1)"><path fill-rule="evenodd" class="a" d="m21.8 333v-307.3h-13.5v-3.1l45.1-21.8v333.3c1.6 14 8.9 26.5 20.8 33.2v3.1h-73.7v-3.1c12.5-7.8 20.8-19.7 21.3-34.3zm74.2-139.6c0-6.2 0.5-13 1.1-19.7 4.6-51.9 24.9-97.1 58.1-128.2 32.7-31.2 73.7-44.7 113.2-44.7 6.2 0 12.4 0.5 18.6 1.1 47.8 4.1 88.8 29 117.4 65.9 28.5 36.8 39.9 79.4 39.9 116.8 0 6.7-0.5 13-1 19.7-4.7 49.8-26.5 95.5-59.7 127.2-33.2 31.7-74.8 46.2-113.7 46.2-5.7 0-11.4-0.5-17.1-1.1-71.7-6.2-128.8-59.6-149-128.7-5.2-17.6-7.8-35.3-7.8-54.5zm30.1-1.6c0 38.5 9.9 79.5 32.7 112.7 22.9 33.7 56.6 57.1 97.6 62.8 4.7 0.5 9.4 1 13.5 1 26.5 0 58.7-12.9 87.7-43.6 29.1-30.6 50.4-74.7 54.5-122.5 0.6-7.8 1.1-16.1 1.1-23.3 0-36.4-8.3-75.8-32.2-109-23.9-32.7-59.7-53.5-99.7-59.2-4.1-0.5-8.3-1.1-12.9-1.1-27.6 0-60.8 13.5-89.3 44.7-29.1 31.1-49.9 75.8-52.5 123.5-0.5 4.7-0.5 9.4-0.5 14z"/></g></svg>